<?xml version="1.0" standalone="no"?>
<!DOCTYPE svg PUBLIC "-//W3C//DTD SVG 20010904//EN"
 "http://www.w3.org/TR/2001/REC-SVG-20010904/DTD/svg10.dtd">
<svg version="1.0" xmlns="http://www.w3.org/2000/svg"
 width="285.000000pt" height="285.000000pt" viewBox="0 0 285.000000 285.000000"
 preserveAspectRatio="xMidYMid meet">
<metadata>
Created by potrace 1.14, written by Peter Selinger 2001-2017
</metadata>
<g transform="translate(0.000000,285.000000) scale(0.100000,-0.100000)"
fill="#000000" stroke="none">
<path d="M550 1453 l0 -913 115 0 c112 0 115 1 116 23 0 12 1 359 1 770 0 411
2 747 3 745 3 -3 113 -324 175 -508 51 -151 339 -997 345 -1013 6 -15 22 -17
115 -17 l108 0 20 58 c11 31 47 136 80 232 33 96 90 261 127 365 37 105 105
300 151 435 124 357 144 414 149 419 3 2 5 -288 5 -645 0 -357 0 -697 0 -756
l0 -108 115 0 115 0 0 913 0 912 -157 -1 c-87 -1 -161 -2 -164 -3 -4 0 -9 -9
-12 -18 -3 -10 -51 -151 -106 -313 -56 -162 -115 -333 -131 -380 -16 -47 -68
-197 -115 -335 -47 -137 -105 -305 -127 -372 -22 -68 -44 -123 -49 -123 -5 0
-9 6 -9 13 0 13 -500 1519 -507 1527 -2 2 -85 5 -184 5 l-179 1 0 -913z"/>
</g>
</svg>
