<svg xmlns="http://www.w3.org/2000/svg" xmlns:xlink="http://www.w3.org/1999/xlink" viewBox="0 0 207.97 70.84"><defs><style>.cls-1{font-size:38.77px;font-family:Arial-BoldMT, Arial;font-weight:700;}.cls-1,.cls-13,.cls-36{fill:#4e4a4a;}.cls-2{letter-spacing:-0.01em;}.cls-3{letter-spacing:0.02em;}.cls-4{letter-spacing:0.03em;}.cls-5{letter-spacing:0em;}.cls-6{letter-spacing:-0.04em;}.cls-7{letter-spacing:-0.07em;}.cls-8{letter-spacing:-0.08em;}.cls-9{letter-spacing:0.05em;}.cls-10{letter-spacing:0.01em;}.cls-11{letter-spacing:-0.01em;}.cls-12{letter-spacing:-0.01em;}.cls-13,.cls-36{font-size:13px;font-family:HiraginoSans-W5-83pv-RKSJ-H, Hiragino Sans;}.cls-13{letter-spacing:0.07em;}.cls-14{letter-spacing:0.02em;}.cls-15{letter-spacing:-0.22em;}.cls-16{letter-spacing:0.07em;}.cls-17{letter-spacing:0.08em;}.cls-18{letter-spacing:-0.02em;}.cls-19{letter-spacing:0.01em;}.cls-20{letter-spacing:-0.01em;}.cls-21{letter-spacing:-0.01em;}.cls-22{letter-spacing:-0.02em;}.cls-23{letter-spacing:0em;}.cls-24{letter-spacing:-0.02em;}.cls-25{letter-spacing:0.06em;}.cls-26{letter-spacing:0.11em;}.cls-27{letter-spacing:0em;}.cls-28{letter-spacing:-0.05em;}.cls-29{letter-spacing:-0.01em;}.cls-30{letter-spacing:0.08em;}.cls-31{letter-spacing:0.06em;}.cls-32{letter-spacing:-0.02em;}.cls-33{letter-spacing:-0.04em;}.cls-34{letter-spacing:-0.18em;}.cls-35{letter-spacing:0.01em;}.cls-36{letter-spacing:0.02em;}.cls-37{letter-spacing:0.03em;}.cls-38{letter-spacing:0.06em;}.cls-39{letter-spacing:0.05em;}.cls-40{letter-spacing:0.03em;}.cls-41{letter-spacing:-0.03em;}.cls-42{letter-spacing:-0.07em;}.cls-43{letter-spacing:-0.04em;}.cls-44{letter-spacing:0.08em;}.cls-45{letter-spacing:0.05em;}.cls-46{letter-spacing:0.03em;}.cls-47{letter-spacing:0.01em;}.cls-48{letter-spacing:0.03em;}.cls-49{letter-spacing:0.02em;}.cls-50{letter-spacing:0.01em;}.cls-51{letter-spacing:0.03em;}.cls-52{letter-spacing:0.03em;}.cls-53{letter-spacing:0.03em;}.cls-54{fill:#fff;}.cls-55{fill:#3e3e3f;}.cls-56{fill:#3d3a39;}</style></defs><g id="レイヤー_2" data-name="レイヤー 2"><g id="レイヤー_1-2" data-name="レイヤー 1"><image width="1142" height="1109" transform="translate(2.67 19.11) scale(0.03 0.03)" xlink:href="../%E3%82%A2%E3%82%BB%E3%83%83%E3%83%88%202.png"/><text/><text class="cls-1" transform="translate(42.39 48.37) scale(0.67 1)"><tspan class="cls-2">0</tspan><tspan class="cls-3" x="21.08" y="0">3</tspan><tspan class="cls-4" x="43.24" y="0">-</tspan><tspan class="cls-5" x="57.28" y="0">5</tspan><tspan class="cls-6" x="79.02" y="0">8</tspan><tspan class="cls-7" x="99.14" y="0">1</tspan><tspan class="cls-8" x="118.12" y="0">7</tspan><tspan class="cls-9" x="136.64" y="0">-</tspan><tspan class="cls-10" x="151.64" y="0">4</tspan><tspan class="cls-11" x="173.43" y="0">8</tspan><tspan class="cls-12" x="194.71" y="0">5</tspan><tspan x="215.84" y="0">2</tspan></text><text class="cls-13" transform="translate(0 11.44) scale(0.67 1)">お<tspan class="cls-14" x="13.91" y="0">急</tspan><tspan class="cls-15" x="27.15" y="0">ぎ・</tspan><tspan class="cls-16" x="47.43" y="0">お</tspan><tspan class="cls-17" x="61.37" y="0">問</tspan><tspan class="cls-18" x="75.44" y="0">い</tspan><tspan class="cls-19" x="88.16" y="0">合</tspan><tspan class="cls-20" x="101.35" y="0">わ</tspan><tspan class="cls-21" x="114.27" y="0">せ</tspan><tspan class="cls-22" x="127.11" y="0">の</tspan><tspan class="cls-23" x="139.84" y="0">方</tspan><tspan class="cls-24" x="152.8" y="0">も</tspan><tspan class="cls-25" x="165.54" y="0">お</tspan><tspan class="cls-26" x="179.3" y="0">気</tspan><tspan class="cls-27" x="193.72" y="0">軽</tspan><tspan class="cls-28" x="206.69" y="0">に</tspan><tspan class="cls-29" x="219" y="0">ご</tspan><tspan class="cls-30" x="231.88" y="0">相</tspan><tspan class="cls-31" x="245.88" y="0">談</tspan><tspan class="cls-32" x="259.6" y="0">下</tspan><tspan class="cls-33" x="272.37" y="0">さ</tspan><tspan class="cls-34" x="284.85" y="0">い</tspan><tspan class="cls-35" x="295.55" y="0">！</tspan></text><text class="cls-36" transform="translate(89.91 65.53) scale(0.67 1)"> <tspan class="cls-37" x="4.65" y="0">0</tspan><tspan class="cls-38" x="14.02" y="0">3</tspan><tspan class="cls-39" x="23.74" y="0">-</tspan><tspan class="cls-40" x="29.44" y="0">5</tspan><tspan class="cls-41" x="38.84" y="0">8</tspan><tspan class="cls-42" x="47.38" y="0">1</tspan><tspan class="cls-43" x="55.43" y="0">7</tspan><tspan class="cls-44" x="63.88" y="0">-</tspan><tspan class="cls-45" x="69.93" y="0">4</tspan><tspan class="cls-46" x="79.57" y="0">8</tspan><tspan class="cls-47" x="88.99" y="0">6</tspan><tspan class="cls-48" x="98.14" y="0">2 </tspan><tspan class="cls-49" x="112.09" y="0">(</tspan><tspan class="cls-50" x="117.36" y="0">2</tspan><tspan class="cls-51" x="126.52" y="0">4</tspan><tspan class="cls-52" x="135.9" y="0">時</tspan><tspan class="cls-53" x="149.26" y="0">間</tspan><tspan x="162.68" y="0">)</tspan></text><polygon class="cls-54" points="81.2 58.92 81.2 52.58 88.77 52.58 90.62 53.98 90.62 58.92 81.2 58.92"/><path class="cls-55" d="M88.6,53.08l1.52,1.15v4.19H81.7V53.08h6.9m.34-1H80.7v7.34H91.12V53.73l-.4-.3-1.51-1.15-.27-.2Z"/><polygon class="cls-56" points="88.6 54.23 88.6 53.08 90.12 54.23 88.6 54.23"/><rect class="cls-56" x="78.3" y="58.04" width="13.37" height="8.08" rx="4"/><path class="cls-56" d="M79.18,66.37a1.76,1.76,0,0,1-1.76-1.76V59.55a1.76,1.76,0,0,1,1.76-1.76h1.75v6.82A1.75,1.75,0,0,1,79.18,66.37Z"/><path class="cls-54" d="M80.68,58v6.57a1.51,1.51,0,1,1-3,0V59.55A1.51,1.51,0,0,1,79.18,58h1.5m.5-.5h-2a2,2,0,0,0-2,2v5.06a2,2,0,1,0,4,0V57.54Z"/><path class="cls-54" d="M84.69,59.75a.69.69,0,0,1-.69.69.69.69,0,1,1,.69-.69Z"/><circle class="cls-54" cx="86.03" cy="59.75" r="0.69"/><circle class="cls-54" cx="88.05" cy="59.75" r="0.69"/><path class="cls-54" d="M84.69,62a.68.68,0,0,1-.69.68.67.67,0,0,1-.68-.68.68.68,0,0,1,.68-.69A.69.69,0,0,1,84.69,62Z"/><circle class="cls-54" cx="86.03" cy="61.96" r="0.69"/><circle class="cls-54" cx="88.05" cy="61.96" r="0.69"/><path class="cls-54" d="M84.69,64.16a.68.68,0,0,1-.69.68.67.67,0,0,1-.68-.68.68.68,0,0,1,.68-.69A.69.69,0,0,1,84.69,64.16Z"/><path class="cls-54" d="M86.71,64.16a.67.67,0,0,1-.68.68.68.68,0,0,1-.69-.68.69.69,0,0,1,.69-.69A.68.68,0,0,1,86.71,64.16Z"/><path class="cls-54" d="M88.74,64.16a.68.68,0,0,1-.69.68.67.67,0,0,1-.68-.68.68.68,0,0,1,.68-.69A.69.69,0,0,1,88.74,64.16Z"/><path class="cls-56" d="M84.36,55.19a.08.08,0,0,0-.08-.08H82.93a.09.09,0,0,0-.09.08v2a.09.09,0,0,0,.09.09h.4a.09.09,0,0,0,.09-.09v-.73h.72a.09.09,0,0,0,.09-.08V56a.09.09,0,0,0-.09-.09h-.72v-.37h.86a.08.08,0,0,0,.08-.09Z"/><path class="cls-56" d="M86,55.16a.09.09,0,0,0-.08,0h-.48a.09.09,0,0,0-.08,0l-.72,2a.08.08,0,0,0,0,.08.08.08,0,0,0,.07,0h.41a.09.09,0,0,0,.08-.06l.16-.47H86l.16.47a.09.09,0,0,0,.08.06h.43a.13.13,0,0,0,.07,0,.11.11,0,0,0,0-.08Zm-.45,1c0-.13.09-.27.12-.39,0,.13.09.26.13.39l0,.12h-.33Z"/><path class="cls-56" d="M88.92,57.1l-.6-1,.56-.91a.07.07,0,0,0,0-.09.07.07,0,0,0-.07,0h-.43a.07.07,0,0,0-.07,0l-.24.43-.09.17h0l-.09-.17-.24-.43a.09.09,0,0,0-.08,0h-.45a.07.07,0,0,0-.07,0,.08.08,0,0,0,0,.09l.56.9-.6,1a.1.1,0,0,0,.07.14h.43a.1.1,0,0,0,.08-.05l.26-.46c0-.06.07-.12.1-.19l0,0c0,.06.06.1.09.15l.26.46a.1.1,0,0,0,.08.05h.45a.1.1,0,0,0,.07-.14Z"/></g></g></svg>