<?xml version="1.0" encoding="utf-8"?>
<!-- Generator: Adobe Illustrator 26.0.3, SVG Export Plug-In . SVG Version: 6.00 Build 0)  -->
<svg version="1.1" id="レイヤー_1" xmlns="http://www.w3.org/2000/svg" xmlns:xlink="http://www.w3.org/1999/xlink" x="0px"
	 y="0px" viewBox="0 0 208 70.8" style="enable-background:new 0 0 208 70.8;" xml:space="preserve">
<style type="text/css">
	.st0{font-family:'Arial-BoldMT';}
	.st1{font-size:23.9746px;}
	.st2{letter-spacing:-1;}
	.st3{letter-spacing:1;}
	.st4{font-family:'HiraginoSans-W5-83pv-RKSJ-H';}
	.st5{font-size:7.4379px;}
	.st6{fill:#3D3A39;}
	.st7{fill:#FFFFFF;}
	.st8{fill-rule:evenodd;clip-rule:evenodd;fill:#1C1C1C;}
	.st9{font-family:'KozGoPr6N-Regular-83pv-RKSJ-H';}
	.st10{font-size:7.0937px;}
	.st11{font-size:12px;}
</style>
<image style="overflow:visible;" width="220" height="83" xlink:href="つたえたがりそこいるimg.png"  transform="matrix(0.7024 0 0 0.7024 54.556 20.8938)">
</image>
<text transform="matrix(1.0398 0 0 1 21.7598 35.5547)" class="st0 st1">0</text>
<text transform="matrix(1.0398 0 0 1 35.3135 35.5547)" class="st0 st1">3</text>
<text transform="matrix(1.0398 0 0 1 49.5615 35.5547)" class="st0 st1">-</text>
<text transform="matrix(1.0398 0 0 1 58.5889 35.5547)" class="st0 st1">5</text>
<text transform="matrix(1.0398 0 0 1 72.5684 35.5547)" class="st0 st1">8</text>
<text transform="matrix(1.0398 0 0 1 85.5039 35.5547)" class="st0 st1 st2">1</text>
<text transform="matrix(1.0398 0 0 1 97.708 35.5547)" class="st0 st1 st2">7</text>
<text transform="matrix(1.0398 0 0 1 109.6162 35.5547)" class="st0 st1 st3">-</text>
<text transform="matrix(1.0398 0 0 1 119.2607 35.5547)" class="st0 st1">4</text>
<text transform="matrix(1.0398 0 0 1 133.2705 35.5547)" class="st0 st1">8</text>
<text transform="matrix(1.0398 0 0 1 146.9541 35.5547)" class="st0 st1">5</text>
<text transform="matrix(1.0398 0 0 1 160.54 35.5547)" class="st0 st1">2</text>
<text transform="matrix(1.0398 0 0 1 16.7168 -11.6444)" class="st4 st5">お</text>
<text transform="matrix(1.0398 0 0 1 24.9912 -11.6444)" class="st4 st5">急</text>
<text transform="matrix(1.0398 0 0 1 32.8682 -11.6444)" class="st4 st5 st2">ぎ</text>
<text transform="matrix(1.0398 0 0 1 44.9336 -11.6444)" class="st4 st5">お</text>
<text transform="matrix(1.0398 0 0 1 53.2256 -11.6444)" class="st4 st5">問</text>
<text transform="matrix(1.0398 0 0 1 61.5967 -11.6444)" class="st4 st5">い</text>
<text transform="matrix(1.0398 0 0 1 69.1631 -11.6444)" class="st4 st5">合</text>
<text transform="matrix(1.0398 0 0 1 77.0098 -11.6444)" class="st4 st5">わ</text>
<text transform="matrix(1.0398 0 0 1 84.6963 -11.6444)" class="st4 st5">せ</text>
<text transform="matrix(1.0398 0 0 1 92.335 -11.6444)" class="st4 st5">の</text>
<text transform="matrix(1.0398 0 0 1 99.9082 -11.6444)" class="st4 st5">方</text>
<text transform="matrix(1.0398 0 0 1 107.6182 -11.6444)" class="st4 st5">も</text>
<text transform="matrix(1.0398 0 0 1 115.1973 -11.6444)" class="st4 st5">お</text>
<text transform="matrix(1.0398 0 0 1 123.3833 -11.6444)" class="st4 st5">気</text>
<text transform="matrix(1.0398 0 0 1 131.9604 -11.6444)" class="st4 st5">軽</text>
<text transform="matrix(1.0398 0 0 1 139.6772 -11.6444)" class="st4 st5">に</text>
<text transform="matrix(1.0398 0 0 1 146.9995 -11.6444)" class="st4 st5">ご</text>
<text transform="matrix(1.0398 0 0 1 154.6626 -11.6444)" class="st4 st5">相</text>
<text transform="matrix(1.0398 0 0 1 162.9917 -11.6444)" class="st4 st5">談</text>
<text transform="matrix(1.0398 0 0 1 171.1528 -11.6444)" class="st4 st5">下</text>
<text transform="matrix(1.0398 0 0 1 178.7515 -11.6444)" class="st4 st5">さ</text>
<text transform="matrix(1.0398 0 0 1 186.1753 -11.6444)" class="st4 st5 st2">い</text>
<text transform="matrix(1.0398 0 0 1 192.5415 -11.6444)" class="st4 st5">！</text>
<text transform="matrix(1.0398 0 0 1 44.1335 46.0477)" class="st4 st5">0</text>
<text transform="matrix(1.0398 0 0 1 49.7068 46.0477)" class="st4 st5">3</text>
<text transform="matrix(1.0398 0 0 1 55.49 46.0477)" class="st4 st5">-</text>
<text transform="matrix(1.0398 0 0 1 58.8806 46.0477)" class="st4 st5">5</text>
<text transform="matrix(1.0398 0 0 1 64.4724 46.0477)" class="st4 st5">8</text>
<text transform="matrix(1.0398 0 0 1 69.552 46.0477)" class="st4 st5">1</text>
<text transform="matrix(1.0398 0 0 1 74.3411 46.0477)" class="st4 st5">7</text>
<text transform="matrix(1.0398 0 0 1 79.3684 46.0477)" class="st4 st5">-</text>
<text transform="matrix(1.0398 0 0 1 82.967 46.0477)" class="st4 st5">4</text>
<text transform="matrix(1.0398 0 0 1 88.7024 46.0477)" class="st4 st5">8</text>
<text transform="matrix(1.0398 0 0 1 94.3069 46.0477)" class="st4 st5">6</text>
<text transform="matrix(1.0398 0 0 1 99.7493 46.0477)" class="st4 st5">2 </text>
<text transform="matrix(1.0398 0 0 1 108.0481 46.0477)" class="st4 st5">(</text>
<text transform="matrix(1.0398 0 0 1 111.1838 46.0477)" class="st4 st5">2</text>
<text transform="matrix(1.0398 0 0 1 116.6331 46.0477)" class="st4 st5">4</text>
<text transform="matrix(1.0398 0 0 1 122.2141 46.0477)" class="st4 st5">時</text>
<text transform="matrix(1.0398 0 0 1 130.1614 46.0477)" class="st4 st5">間</text>
<text transform="matrix(1.0398 0 0 1 138.1458 46.0477)" class="st4 st5">)</text>
<polygon class="st6" points="79.1,32.7 79.1,32 80.5,32.7 "/>
<ellipse class="st7" cx="37.9" cy="42.7" rx="0.6" ry="0.4"/>
<ellipse class="st7" cx="39.7" cy="42.7" rx="0.6" ry="0.4"/>
<ellipse class="st7" cx="37.9" cy="44" rx="0.6" ry="0.4"/>
<ellipse class="st7" cx="39.7" cy="44" rx="0.6" ry="0.4"/>
<path class="st7" d="M38.5,45.3c0,0.2-0.3,0.4-0.6,0.4c0,0,0,0,0,0c-0.3,0-0.6-0.2-0.6-0.4c0,0,0,0,0,0c0-0.2,0.3-0.4,0.6-0.4l0,0
	C38.3,44.9,38.5,45,38.5,45.3C38.5,45.3,38.5,45.3,38.5,45.3z"/>
<path class="st7" d="M40.3,45.3c0,0.2-0.3,0.4-0.6,0.4c0,0,0,0,0,0c-0.3,0-0.6-0.2-0.6-0.4c0,0,0,0,0,0c0-0.2,0.3-0.4,0.6-0.4
	c0,0,0,0,0,0C40.1,44.9,40.3,45,40.3,45.3L40.3,45.3z"/>
<g>
	<path class="st8" d="M9,28.7c1.9,1.9,2.5,1.6,2.5,1.6s1.6-0.9,1.8-1c0.2-0.1,0.5-0.1,0.7,0.1c0.5,0.4,1.4,1.2,1.9,1.6
		c0.2,0.2,0.3,0.4,0.2,0.7c-0.1,0.3-0.8,1.6-1.1,2c-0.2,0.4-0.6,0.6-1.1,0.5c-1.2-0.2-3.8-0.8-6.7-3.7S3.7,25,3.6,23.8
		c0-0.4,0.2-0.8,0.5-1.1c0.3-0.3,1.7-1,2-1.1c0.3-0.1,0.5,0,0.7,0.2c0.4,0.5,1.2,1.4,1.6,1.9c0.2,0.2,0.2,0.5,0.1,0.7
		c-0.1,0.2-1,1.8-1,1.8S7.1,26.8,9,28.7L9,28.7z M10.1,20.3c4.1,0,7.4,3.3,7.4,7.4h1.2c0-4.7-3.8-8.6-8.6-8.6V20.3L10.1,20.3z
		 M10.1,25.2c1.4,0,2.5,1.1,2.5,2.5h1.2c0-2-1.6-3.6-3.6-3.6V25.2L10.1,25.2z M10.1,22.8c2.7,0,4.9,2.2,4.9,4.9h1.2
		c0-3.4-2.7-6.1-6.1-6.1V22.8L10.1,22.8z"/>
</g>
<text transform="matrix(1 0 0 1 28.3485 45.7129)" class="st9 st10">Fax :</text>
<text transform="matrix(1 0 0 1 0.5518 11.3091)" class="st9 st11">お急ぎ・お問い合わせの方もお気軽に！</text>
</svg>
